<?xml version="1.0" encoding="utf-8"?>
<!-- Svg Vector Icons : http://www.onlinewebfonts.com/icon -->
<!DOCTYPE svg PUBLIC "-//W3C//DTD SVG 1.1//EN" "http://www.w3.org/Graphics/SVG/1.1/DTD/svg11.dtd">
<svg fill="#777777" stroke="#777777" version="1.1" xmlns="http://www.w3.org/2000/svg" xmlns:xlink="http://www.w3.org/1999/xlink" x="0px" y="0px" viewBox="0 0 1000 1000" enable-background="new 0 0 1000 1000" xml:space="preserve">
<metadata> Svg Vector Icons : http://www.onlinewebfonts.com/icon </metadata>
<g><g transform="translate(0.000000,511.000000) scale(0.100000,-0.100000)"><path d="M100,108.3v-3047.5l1705.2,13.7c1855.9,13.7,1951.8,24,2359.3,219.2c263.7,126.7,589,452,725.9,719.1c274,544.4,277.4,1208.7,13.7,1698.4c-113,202-441.7,517-609.5,575.3c-65.1,24-119.8,54.8-119.8,65.1c0,10.3,47.9,47.9,109.6,82.2c184.9,113,373.2,301.3,455.4,462.3c154.1,311.6,195.2,749.9,102.7,1109.4c-147.2,571.8-527.3,921.1-1174.5,1088.9c-236.3,58.2-386.9,65.1-1914.1,65.1H100V108.3z M3370.1,1995c229.4-116.4,304.8-253.4,304.8-544.4c0-359.5-133.5-537.6-469.1-636.9c-130.1-37.7-359.5-51.4-938.2-51.4h-763.6v671.1v671.1l849.2-13.7C3174.9,2080.6,3202.3,2077.2,3370.1,1995z M3438.6-384.8c263.7-137,359.5-304.8,359.5-633.5c0-263.7-41.1-414.3-160.9-575.3c-184.9-250-513.6-315-1540.9-308.2l-592.4,3.4v818.4v821.8l866.3-13.7l866.3-10.3L3438.6-384.8z"/><path d="M6503.2,2611.4v-308.2h1232.7h1232.7v308.2v308.2H7735.9H6503.2V2611.4z"/><path d="M7342.1,1731.3c-407.5-54.8-866.3-280.8-1160.8-575.3c-352.7-356.1-541-797.8-599.2-1434.7c-85.6-883.4,126.7-1605.9,602.7-2040.8C6445-2555.7,6859.3-2768,7212-2846.8c311.6-68.5,821.8-68.5,1147.1-3.4c582.1,123.3,1106,503.4,1345.7,986.2c191.7,383.5,215.7,366.4-458.9,366.4h-575.3l-78.8-113c-222.6-325.3-688.2-445.2-1177.9-308.2c-376.7,106.1-647.1,458.8-678,883.4l-10.3,137l1588.8,10.3l1585.4,6.9l-13.7,489.6c-20.5,554.7-78.8,787.6-291.1,1150.5c-376.7,636.9-1078.6,1006.7-1883.3,993C7564.7,1748.5,7400.4,1738.2,7342.1,1731.3z M8205,693.8c294.5-147.2,489.6-434.9,489.6-722.5V-128h-975.9h-972.5l17.1,113c10.3,58.2,65.1,205.5,119.8,321.9c167.8,349.3,404.1,486.2,856,489.7C7961.9,796.5,8030.4,782.8,8205,693.8z"/></g></g>
</svg>