<?xml version="1.0" encoding="utf-8"?>
<!-- Svg Vector Icons : http://www.onlinewebfonts.com/icon -->
<!DOCTYPE svg PUBLIC "-//W3C//DTD SVG 1.1//EN" "http://www.w3.org/Graphics/SVG/1.1/DTD/svg11.dtd">
<svg fill="#f3c300" stroke="#f3c300" version="1.1" xmlns="http://www.w3.org/2000/svg" xmlns:xlink="http://www.w3.org/1999/xlink" x="0px" y="0px" viewBox="0 0 1000 1000" enable-background="new 0 0 1000 1000" xml:space="preserve">
<metadata> Svg Vector Icons : http://www.onlinewebfonts.com/icon </metadata>
<g><path d="M410.7,241c40.7,0,73.8-32.9,73.8-73.7c0-40.7-33.1-73.8-73.8-73.8c-40.7,0-73.9,33.1-73.9,73.8C336.9,208.1,369.9,241,410.7,241L410.7,241z"/><path d="M407.6,420.1H264.9c-44.2,0-44.2-57.7,0-57.7l123.2,0.2l81-127c0,0,17.2-28.5,49.9-28.5c0,0,27.1-3.5,46.4,18.4l156.1,156.4c10,10.9,15.8,25.4,15.8,41.3c0,23.1-12.9,43.4-31.8,53.9l-159,88.4v166.2c0,23.5-19,42.6-42.5,42.6c-23.5,0-42.6-19.2-42.6-42.6V524c0,0-5.6-33.1,32.1-51.2l91.7-48.3l-98.9-97.9l-48,75C429.9,415,418.3,420.4,407.6,420.1L407.6,420.1L407.6,420.1z"/><path d="M10,705.3c0,111.3,90.2,201.3,201.1,201.3c111.1,0,201.3-90,201.3-201.3C412.4,594,322.2,504,211.1,504C100.2,504,10,594,10,705.3L10,705.3z M64.8,705.2c0-80.8,65.7-146.3,146.3-146.3c80.8,0,146.3,65.5,146.3,146.3c0,80.9-65.5,146.4-146.3,146.4C130.5,851.6,64.8,786.1,64.8,705.2L64.8,705.2z"/><path d="M587.6,705.3c0,111.2,90.1,201.3,201.3,201.3c110.8,0,201.1-90,201.1-201.3S899.7,504,788.9,504C677.7,504,587.6,594,587.6,705.3L587.6,705.3z M642.4,705.2c0-80.7,65.7-146.3,146.5-146.3c80.7,0,146.2,65.5,146.2,146.3c0,80.9-65.5,146.4-146.2,146.4C708,851.6,642.4,786.1,642.4,705.2L642.4,705.2z"/></g>
</svg>