<?xml version="1.0" encoding="utf-8"?>
<!-- Svg Vector Icons : http://www.onlinewebfonts.com/icon -->
<!DOCTYPE svg PUBLIC "-//W3C//DTD SVG 1.1//EN" "http://www.w3.org/Graphics/SVG/1.1/DTD/svg11.dtd">
<svg fill="#f3c300" stroke="#f3c300" version="1.1" xmlns="http://www.w3.org/2000/svg" xmlns:xlink="http://www.w3.org/1999/xlink" x="0px" y="0px" viewBox="0 0 1000 1000" enable-background="new 0 0 1000 1000" xml:space="preserve">
<metadata> Svg Vector Icons : http://www.onlinewebfonts.com/icon </metadata>
<g><g transform="translate(0.000000,511.000000) scale(0.100000,-0.100000)"><path d="M100,2253.8V926.7h714.6h714.6v-1939.6v-1939.6h-306.3H916.7v-204.2v-204.2h816.7H2550v204.2v204.2h-306.3h-306.3v1939.6V926.7H5000h3062.5v-1939.6v-1939.6h-306.3H7450v-204.2v-204.2h816.7h816.7v204.2v204.2h-306.3h-306.3v1939.6V926.7h714.6H9900v1327.1v1327.1H5000H100V2253.8z M1478.1,3164.8c0-2.6-216.9-224.6-484.9-490l-484.9-484.9v492.5v490h484.9C1261.2,3172.5,1478.1,3169.9,1478.1,3164.8z M1924.7,2253.8L1006,1335H758.4H508.3v158.2V1654l758,758l760.5,760.5h408.3h408.3L1924.7,2253.8z M3507,2253.8L2588.3,1335h-510.4h-510.4l918.7,918.8l918.8,918.7h510.4h510.4L3507,2253.8z M5063.8,2253.8L4145.1,1335h-510.4h-510.4l918.7,918.8l918.8,918.7h510.4h510.4L5063.8,2253.8z M6646.1,2253.8L5727.3,1335h-510.4h-510.4l918.7,918.8l918.8,918.7h510.4h510.4L6646.1,2253.8z M8202.9,2253.8L7284.1,1335h-510.4h-510.4l918.8,918.8l918.7,918.7h510.4h510.4L8202.9,2253.8z M9129.3,1699.9L8764.3,1335H8305h-459.4l816.7,816.7l816.7,816.7l7.6-451.7l5.1-451.7L9129.3,1699.9z M9491.7,1424.3c0-86.8-2.5-89.3-94.4-89.3h-94.4l86.8,89.3c48.5,48.5,89.3,89.3,94.4,89.3S9491.7,1472.8,9491.7,1424.3z"/></g></g>
</svg>