<?xml version="1.0" encoding="utf-8"?>
<!-- Svg Vector Icons : http://www.onlinewebfonts.com/icon -->
<!DOCTYPE svg PUBLIC "-//W3C//DTD SVG 1.1//EN" "http://www.w3.org/Graphics/SVG/1.1/DTD/svg11.dtd">
<svg fill="#f3c300" stroke="#f3c300" version="1.1" xmlns="http://www.w3.org/2000/svg" xmlns:xlink="http://www.w3.org/1999/xlink" x="0px" y="0px" viewBox="0 0 1000 1000" enable-background="new 0 0 1000 1000" xml:space="preserve">
<metadata> Svg Vector Icons : http://www.onlinewebfonts.com/icon </metadata>
<g><g transform="translate(0.000000,512.000000) scale(0.100000,-0.100000)"><path d="M2036.9,5006.2c-80.4-32.6-101.5-113-101.5-373.4v-239.4h-488.4c-532.4,0-574.5-7.7-618.6-105.3c-36.4-78.5-30.6-856.1,5.7-926.9c36.4-72.8,114.9-97.7,304.5-97.7h157l406-3939.4c226-2167.9,417.5-3966.2,429-3994.9c44-114.9-124.5-109.2,2868.8-109.2c3024,0,2830.5-7.7,2868.8,118.7c11.5,34.5,203,1832.8,427.1,3994.9l407.9,3929.8h157c189.6,0,268.1,24.9,304.5,97.7c40.2,76.6,42.1,856,1.9,934.6c-47.9,91.9-90,97.7-614.7,97.7h-484.5l-7.7,268.1c-5.7,249-9.6,270-49.8,310.3l-44,44l-2943.5,3.8C3337.3,5021.5,2061.8,5015.8,2036.9,5006.2z M7699.9,4537v-143.6h-2708H2284l5.7,139.8c1.9,74.7,5.7,139.8,7.7,143.6c0,1.9,1218,3.8,2702.2,3.8h2700.3V4537z M8829.8,3834.2v-206.8H4993.9H1157.9l-1.9,195.3c-1.9,107.2,0,201.1,3.8,206.8s1731.2,9.6,3837.9,9.6h3832.1V3834.2z M8343.4,3173.5c-11.5-74.7-337.1-3203.9-337.1-3240.3c0-15.3-319.8-21.1-1049.5-21.1H5909.3l-36.4,67c-21.1,36.4-90,116.8-153.2,180C5394.1,469.4,4924.9,538.3,4517,331.5c-130.2-65.1-294.9-212.6-383-337.1l-55.5-82.3H3036.6c-637.7,0-1043.7,7.6-1043.7,17.2c0,30.6-323.6,3146.5-335.1,3234.6l-11.5,80.4h3353.3h3355.3L8343.4,3173.5z M5288.8,40.4c132.1-63.2,272-203,339-339c46-91.9,51.7-128.3,51.7-287.3c0-162.8-5.7-193.4-55.5-294.9c-70.9-145.5-193.4-268.1-333.2-333.2c-93.8-44.1-134.1-51.7-291.1-51.7c-157,0-197.3,7.6-291.1,51.7c-386.8,180-520.9,685.6-271.9,1022.7c88.1,118.7,204.9,208.8,335.1,258.5C4917.3,120.8,5143.2,109.3,5288.8,40.4z M3988.4-321.6c-19.2-86.2-17.2-469.2,1.9-545.8l17.2-63.2h-959.5h-959.5l-7.7,44c-5.7,23-19.2,145.5-30.6,271.9c-11.5,126.4-26.8,258.5-32.6,293l-9.6,61.3H3006h997.8L3988.4-321.6z M7979.5-331.1c-5.7-40.2-19.2-162.8-30.6-273.9c-11.5-111.1-24.9-229.8-30.6-262.4l-9.6-63.2h-957.6h-957.6l15.3,72.8c21.1,93.8,19.2,455.8,0,536.2l-17.2,61.3h999.7H7991L7979.5-331.1z M4153.1-1198.7c147.5-208.8,381.1-356.2,656.9-413.7c379.2-80.4,796.7,86.2,1032.2,409.8l86.2,118.7H6909c961.4,0,982.4,0,982.4-38.3c0-49.8-321.7-3173.3-335.1-3249.9l-11.5-63.2H4999.6H2452.5l-7.7,44c-11.5,51.7-337.1,3226.9-337.1,3274.8c0,30.6,59.4,32.6,982.4,32.6h982.5L4153.1-1198.7z"/></g></g>
</svg>