<?xml version="1.0" encoding="utf-8"?>
<!-- Svg Vector Icons : http://www.onlinewebfonts.com/icon -->
<!DOCTYPE svg PUBLIC "-//W3C//DTD SVG 1.1//EN" "http://www.w3.org/Graphics/SVG/1.1/DTD/svg11.dtd">
<svg fill="#f3c300" stroke="#f3c300" version="1.1" xmlns="http://www.w3.org/2000/svg" xmlns:xlink="http://www.w3.org/1999/xlink" x="0px" y="0px" viewBox="0 0 1000 1000" enable-background="new 0 0 1000 1000" xml:space="preserve">
<metadata> Svg Vector Icons : http://www.onlinewebfonts.com/icon </metadata>
<g><path d="M820.3,349.4c0-28.5,0-76.1,0-114.2c0-41.2-22.2-180.8-187.1-225.2c0,104.7,0,367.9,0,494.8c-3.2,69.8-38.1,275.9-38.1,295v76.1c0,9.5,3.2,50.7,19,76.1c15.9,28.5,44.4,38.1,57.1,38.1s38.1-19,57.1-57.1c12.7-31.7,19-85.6,19-95.1l-34.9-304.5C763.2,492.1,820.3,419.1,820.3,349.4z M404.9,10v244.2c0,9.5-9.5,19-19,19c-9.5,0-19-9.5-19-19V48.1c0-22.2-15.9-38.1-38.1-38.1s-38.1,15.9-38.1,38.1v206.1c0,9.5-9.5,19-19,19s-19-9.5-19-19V10c-38.1,0-72.9,145.9-72.9,187.1v76.1c0,41.2,34.9,149.1,76.1,149.1h38.1c0,76.1-38.1,317.2-38.1,339.4v76.1c0,22.2,15.9,149.1,38.1,149.1H370c22.2,0,38.1-130,38.1-149.1v-76.1c0-22.2-38.1-272.8-38.1-339.4h34.9c41.2,0,76.1-107.8,76.1-149.1v-76.1C481,155.9,446.1,10,404.9,10z"/></g>
</svg>