<?xml version="1.0" encoding="utf-8"?>
<!-- Svg Vector Icons : http://www.onlinewebfonts.com/icon -->
<!DOCTYPE svg PUBLIC "-//W3C//DTD SVG 1.1//EN" "http://www.w3.org/Graphics/SVG/1.1/DTD/svg11.dtd">
<svg fill="#f3c300" stroke="#f3c300" version="1.1" xmlns="http://www.w3.org/2000/svg" xmlns:xlink="http://www.w3.org/1999/xlink" x="0px" y="0px" viewBox="0 0 1000 1000" enable-background="new 0 0 1000 1000" xml:space="preserve">
<metadata> Svg Vector Icons : http://www.onlinewebfonts.com/icon </metadata>
<g><path d="M973,375.7c-27.1-14.2-101.2,9.7-120.5,22.1c-6.3-11.2-13.5-23.5-21.3-36.1c-39.7-64.4-73.4-101.8-103-114.1c-1.2-0.5-2.4-0.9-3.7-1.2c-2.5-0.6-64-14.7-224.6-14.7c-160.6,0-222,14.1-224.6,14.7c-1.3,0.3-2.5,0.7-3.7,1.2c-29.6,12.4-63.3,49.7-103,114.1c-7.8,12.6-14.9,24.9-21.3,36.1c-19.3-12.4-93.3-36.3-120.5-22.1c-28,14.7-16.8,60.8,0,73.3c10.5,7.8,39.2,10.2,69.5,8.2c-6.8,9.1-12.2,19.4-15.9,30.4c47.7,8.9,160,8.6,143.2,44.9c-24.5,53.2-100.1,45.9-146.6,22.2l8.7,150.1c0,35.1,28.4,63.5,63.5,63.5h38.2c35.1,0,63.5-28.4,63.5-63.5l-1.2-13.5h500.4l-1.2,13.5c0,35.1,28.4,63.5,63.5,63.5h38.2c35.1,0,63.5-28.4,63.5-63.5l8.7-150.1c-46.6,23.7-122.1,31-146.6-22.2c-16.8-36.4,95.4-36,143.2-44.9c-3.7-11.1-9-21.3-15.9-30.4c30.3,2,59-0.4,69.5-8.2C989.7,436.5,1001,390.4,973,375.7z M622.2,620.9H377.8l-25.4-92.6h295.1L622.2,620.9z M191.7,414.6c30.4-53.2,69.2-110,96.4-123.1c11.4-2.2,73.5-13,211.9-13c138.6,0,200.7,10.8,211.9,13c27.1,13.1,66,69.9,96.4,123.1H191.7z"/><g></g><g></g><g></g><g></g><g></g><g></g><g></g><g></g><g></g><g></g><g></g><g></g><g></g><g></g><g></g></g>
</svg>