<?xml version="1.0" encoding="utf-8"?>
<!-- Svg Vector Icons : http://www.onlinewebfonts.com/icon -->
<!DOCTYPE svg PUBLIC "-//W3C//DTD SVG 1.1//EN" "http://www.w3.org/Graphics/SVG/1.1/DTD/svg11.dtd">
<svg fill="white" stroke="white" version="1.1" xmlns="http://www.w3.org/2000/svg" xmlns:xlink="http://www.w3.org/1999/xlink" x="0px" y="0px" viewBox="0 0 1000 1000" enable-background="new 0 0 1000 1000" xml:space="preserve">
<metadata> Svg Vector Icons : http://www.onlinewebfonts.com/icon </metadata>
<g><path d="M966.6,13.3C949,22,35.8,450.4,35.8,450.4c-58.1,52.2,0,104.3,0,104.3l274.8,137.8c0,0,90.6,181.7,126.9,254.3c36.3,72.6,106.8,36.1,116.8,9.9c10-26.2,425.8-906.7,433.3-922.4C995,18.5,984.3,4.6,966.6,13.3z M53.6,500.4c0.1-4.6,3.5-9.5,7.3-13.5c67.3-31.6,552.8-259.3,792.4-371.9L323.5,650.1l-261.3-131C58.3,514.1,53.6,506.6,53.6,500.4z M514.6,938.4c-2.6,2.5-9.9,7.2-17.7,7.2c-2.7,0-11,0-20.3-18.6C445.2,864.3,372.2,718,353.9,681.3l535-540.4C556.8,845,520.2,925.2,514.6,938.4z"/></g>
</svg>